<svg width="117" height="169" viewBox="0 0 117 169" fill="none" xmlns="http://www.w3.org/2000/svg">
<path d="M22.9463 70.3558C23.3076 72.8381 23.6055 74.8838 22.9462 75.8848L28.7857 67.0985C28.4649 67.2142 27.3839 67.5922 25.6267 68.1787C23.8694 68.7652 23.1075 69.8745 22.9463 70.3558Z" fill="#AFAFAF"/>
<path d="M8.2837 97.8889C11.2131 100.821 19.9994 97.8889 19.9994 97.8889C24.8945 101.901 21.2335 109.966 23.4301 109.233C25.0925 106.261 28.6265 102.951 31.0769 100.656C32.5837 99.2453 33.6808 98.218 33.6808 97.8889C33.6808 97.5579 32.968 91.4723 31.4842 90.9049C29.3726 87.0288 29.4601 88.0645 29.6326 90.107C29.8191 92.314 30.1048 95.6963 27.8232 95.3287C24.801 94.3729 21.4501 93.466 19.9994 93.1042C17.6478 92.5177 11.2091 96.0496 8.2837 97.8889Z" fill="#AFAFAF"/>
<path d="M82.9678 112.514C84.8503 111.221 86.5778 109.994 88.0931 108.885C88.9171 108.555 89.2515 106.844 89.6486 104.811C90.4275 100.824 91.4476 95.6019 96.8794 97.1558C104.82 99.4274 107.049 95.1 109.693 89.9671C110.461 88.4741 111.265 86.9129 112.255 85.4261C115.357 80.7678 117.729 74.2824 116.794 70.3558C115.692 70.3632 112.464 70.8179 108.364 72.5773C104.264 74.3368 98.3576 81.8763 95.917 85.4261L102.005 73.6965C102.462 71.7119 103.662 66.3706 105.641 57.3507C102.114 62.2814 97.6927 68.4664 92.9882 75.052C92.9882 75.052 58.5753 63.394 56.3787 65.2463C54.1821 67.0985 75.3993 99.7022 75.3993 99.7022C67.0618 111.404 60.3731 120.828 59.3074 122.428C56.9644 125.947 44.329 129.763 38.3042 131.231C38.5472 131.37 38.7913 131.497 39.0363 131.612C43.4503 133.674 61.504 138.557 62.9684 138.557C63.3104 138.557 63.7563 138.445 64.2612 138.318C65.9182 137.902 68.2113 137.326 69.5581 140.023C70.1569 141.222 70.8861 142.462 71.6355 143.736C73.0854 146.202 74.6112 148.796 75.4156 151.474C77.8117 151.113 80.0852 150.732 82.0054 150.389C82.8985 150.229 83.7152 150.077 84.4322 149.939C84.4322 149.137 84.3669 147.885 84.1972 146.274C83.7989 142.491 82.8253 136.727 80.7712 130.145C77.8425 120.762 81.0153 114.481 82.9678 112.514Z" fill="#AFAFAF"/>
<path fill-rule="evenodd" clip-rule="evenodd" d="M8.2837 53.1696C2.42624 44.3723 -3.43122 34.1088 2.42624 28.244C3.16804 27.5013 4.1682 26.3705 5.39697 24.9813C13.8709 15.4011 33.2173 -6.47115 53.6802 1.85226C60.0543 4.44499 67.5664 6.22385 75.0077 7.98592C94.919 12.7009 114.323 17.2957 110.059 37.0413C108.3 45.1853 106.83 51.9318 105.641 57.3507C102.114 62.2814 97.6927 68.4664 92.9882 75.052C92.9882 75.052 58.5753 63.394 56.3787 65.2463C54.1821 67.0985 75.3993 99.7022 75.3993 99.7022C67.0618 111.404 60.3731 120.828 59.3074 122.428C56.9644 125.947 44.329 129.763 38.3042 131.231C35.2279 129.475 31.0556 124.367 27.8232 118.763C24.3109 117.256 24.1318 114.645 23.9678 112.256C23.8925 111.159 23.8204 110.108 23.4301 109.233C25.0925 106.261 28.6265 102.951 31.0769 100.656C32.5837 99.2453 33.6808 98.218 33.6808 97.8889C33.6808 97.5579 32.968 91.4723 31.4842 90.9049C29.3726 87.0288 29.4601 88.0645 29.6326 90.107C29.8191 92.314 30.1048 95.6963 27.8232 95.3287C24.801 94.3729 21.4501 93.466 19.9994 93.1042C17.6478 92.5177 11.2091 96.0496 8.2837 97.8889C6.60854 96.212 12.9789 88.3021 19.0696 80.7395C20.4018 79.0854 21.7206 77.4478 22.9389 75.8958L22.9462 75.8848C25.8946 72.1284 28.2536 68.8744 28.7857 67.0985C28.4649 67.2142 27.3839 67.5922 25.6267 68.1787C23.8694 68.7652 23.1075 69.8745 22.9463 70.3558C22.5088 67.3512 21.9783 63.7068 22.9389 60.5006C23.3383 59.1676 23.3016 58.3678 22.9389 57.8985C22.3644 57.1552 20.972 57.2412 19.1997 57.3507C15.9378 57.5522 11.3889 57.8332 8.2837 53.1696ZM23.9092 57.5751C30.8768 55.1954 42.8525 49.9286 41.7349 45.4525C40.7324 41.4378 46.2489 45.686 51.0034 49.3474C53.1945 51.0348 55.2238 52.5975 56.3787 53.1696C56.4996 53.2294 56.6277 53.2929 56.7624 53.3597C59.2286 54.5824 63.9174 56.9069 67.4319 58.3045C66.3601 58.1213 65.1451 57.9221 63.8498 57.7097C56.2367 56.4613 45.8455 54.7573 45.3958 53.1696C44.8352 51.1899 31.4089 55.0985 23.9092 57.5751Z" fill="#EEEEEE"/>
<path d="M41.7349 45.4525C42.8525 49.9286 30.8768 55.1954 23.9092 57.5751C31.4089 55.0985 44.8352 51.1899 45.3958 53.1696C45.8455 54.7573 56.2367 56.4613 63.8498 57.7097C65.1451 57.9221 66.3601 58.1213 67.4319 58.3045C63.9174 56.9069 59.2286 54.5824 56.7624 53.3597L56.3787 53.1696C55.2238 52.5975 53.1945 51.0348 51.0034 49.3474C46.2489 45.686 40.7324 41.4378 41.7349 45.4525Z" fill="#AFAFAF"/>
<path fill-rule="evenodd" clip-rule="evenodd" d="M39.0363 131.612C38.7913 131.497 38.5472 131.37 38.3042 131.231C38.5482 132.824 39.0363 136.743 39.0363 139.676C39.0363 141.558 37.6285 144.145 36.1683 146.274C34.9278 145.785 31.7144 145.101 28.7857 146.274C25.8569 147.447 25.1247 159.47 25.1247 165.334C31.4704 166.556 46.2118 169 54.4123 169C62.6129 169 83.7 166.556 93.2185 165.334C92.1655 161.785 89.6201 154.322 87.8629 152.872C86.1056 151.421 83.2257 150.612 82.0054 150.389C80.0852 150.732 77.8117 151.113 75.4156 151.474C74.6112 148.796 73.0854 146.202 71.6355 143.736C70.8861 142.462 70.1569 141.222 69.5581 140.023C68.2113 137.326 65.9182 137.902 64.2612 138.318C63.7563 138.445 63.3104 138.557 62.9684 138.557C61.504 138.557 43.4503 133.674 39.0363 131.612ZM113.72 67.0985C115.442 67.5296 116.404 68.7209 116.794 70.3558C115.692 70.3632 112.464 70.8179 108.364 72.5773C104.264 74.3368 98.3576 81.8763 95.917 85.4261L102.005 73.6965C103.957 71.0084 109.034 65.9256 113.72 67.0985Z" fill="#EEEEEE"/>
<path d="M93.2185 165.334C93.4625 159.47 93.3649 147.593 91.0219 147.007C88.6789 146.42 85.4959 146.274 84.1972 146.274C84.3669 147.885 84.4322 149.137 84.4322 149.939C83.7152 150.077 82.8985 150.229 82.0054 150.389C83.2257 150.612 86.1056 151.421 87.8629 152.872C89.6201 154.322 92.1655 161.785 93.2185 165.334Z" fill="#AFAFAF"/>
</svg>
