<svg width="267" height="299" viewBox="0 0 267 299" fill="none" xmlns="http://www.w3.org/2000/svg">
<path d="M114 256.5C114 262.299 111.299 265 105.5 265C99.701 265 93 257.299 93 251.5C93 245.701 97.701 244 103.5 244C109.299 244 114 250.701 114 256.5Z" fill="#D9D9D9"/>
<path d="M185 290.5C185 296.299 182.299 299 176.5 299C170.701 299 164 291.299 164 285.5C164 279.701 168.701 278 174.5 278C180.299 278 185 284.701 185 290.5Z" fill="#D9D9D9"/>
<path d="M82.8499 211.201C63.8499 215.201 74.35 235.201 80.35 241.201C86.35 247.201 176.85 298.201 193.85 296.201C210.85 294.201 221.85 279.201 214.85 271.701C207.85 264.201 101.85 207.201 82.8499 211.201Z" fill="#3D4343"/>
<path d="M111.653 246.261C120.153 248.761 128.153 248.761 131.153 241.261C134.153 233.761 124.653 229.261 124.653 229.261C124.653 229.261 106.653 224.761 100.153 232.761C93.6527 240.761 103.153 243.761 111.653 246.261Z" fill="#292929"/>
<mask id="mask0_1017_35" style="mask-type:alpha" maskUnits="userSpaceOnUse" x="88" y="226" width="25" height="23">
<path d="M112.5 237C113.5 230.5 110.5 226.5 110.5 226.5L88.5 233.5L106.5 248.5C106.5 248.5 111.5 243.5 112.5 237Z" fill="white"/>
</mask>
<g mask="url(#mask0_1017_35)">
<path d="M111.653 246.261C120.153 248.761 128.153 248.761 131.153 241.261C134.153 233.761 124.653 229.261 124.653 229.261C124.653 229.261 106.653 224.761 100.153 232.761C93.6527 240.761 103.153 243.761 111.653 246.261Z" fill="#DADADA"/>
</g>
<path d="M161.5 277.5C157 273 169 258.5 169 258.5C169 258.5 187.5 254.5 190 261C192.5 267.5 187 277.5 182.5 279C178 280.5 166 282 161.5 277.5Z" fill="#292929"/>
<mask id="mask1_1017_35" style="mask-type:alpha" maskUnits="userSpaceOnUse" x="160" y="257" width="31" height="24">
<path d="M161.5 277.5C157 273 169 258.5 169 258.5C169 258.5 187.5 254.5 190 261C192.5 267.5 187 277.5 182.5 279C178 280.5 166 282 161.5 277.5Z" fill="#292929"/>
</mask>
<g mask="url(#mask1_1017_35)">
<path d="M171 270C164 269.5 158 269 158 269L154 280.5L178 287L191 274C191 274 178 270.5 171 270Z" fill="#D9D9D9"/>
</g>
<g filter="url(#filter0_d_1017_35)">
<path d="M120 240.5C108.5 231 130.549 204 133.525 202C136.5 200 188 202 189.025 211C190.049 220 192 251.5 184.525 258C177.049 264.5 167.5 261 163 258C158.5 255 158.5 215 158.5 215C158.5 215 131.5 250 120 240.5Z" fill="#3998F3"/>
</g>
<path d="M154.835 156.972C154.835 156.972 103.835 114.472 86.8353 127.472C69.8353 140.472 134.835 176.472 134.835 176.472C134.835 176.472 127.835 191.472 131.335 201.972C134.835 212.472 175.835 221.472 186.335 218.972C196.835 216.472 202.335 187.472 202.335 187.472C202.335 187.472 210.835 192.472 223.835 192.972C236.835 193.472 266.835 187.472 264.835 171.972C262.835 156.472 188.835 156.972 188.835 156.972H154.835Z" fill="#B3B3B3" stroke="#B3B3B3" stroke-width="4"/>
<path d="M164.5 161L155 202" stroke="white" stroke-width="4" stroke-linecap="round"/>
<path d="M220.736 135.27C210.823 161.34 181.864 174.517 156.052 164.703C130.241 154.889 120.088 127.07 130 101C139.912 74.9305 163.5 70.5 192 78C216.5 84.447 230.648 109.201 220.736 135.27Z" fill="#FEDBB2"/>
<path d="M144 135C146.761 135 149 132.761 149 130C149 127.239 146.761 125 144 125C141.239 125 139 127.239 139 130C139 132.761 141.239 135 144 135Z" fill="black"/>
<path d="M189 140C191.761 140 194 137.761 194 135C194 132.239 191.761 130 189 130C186.239 130 184 132.239 184 135C184 137.761 186.239 140 189 140Z" fill="black"/>
<path d="M172.415 146.124C174.415 147.124 173.415 149.372 170.915 149.872C168.415 150.372 159.615 148.624 158.915 145.124C158.215 141.624 163.415 143.624 165.915 144.624C168.415 145.624 170.415 145.124 172.415 146.124Z" fill="black"/>
<path d="M200.032 71.9546C226.832 81.555 229.865 108.788 226.532 126.455L222.532 138.955C222.532 138.955 216.532 135.955 214.032 134.455C211.532 132.955 207.532 117.955 207.532 117.955C207.532 117.955 202.532 129.455 200.032 129.455C197.532 129.455 191.532 103.955 191.532 103.955C191.532 103.955 184.032 124.955 181.532 124.955C179.032 124.955 167.532 103.955 167.532 103.955C167.532 103.955 154.532 124.955 151.532 126.455C148.532 127.955 146.532 100.455 146.532 100.455C146.532 100.455 129.032 117.955 127.032 115.455C125.032 112.955 129.032 100.455 129.032 100.455C129.032 100.455 123.532 100.455 124.032 96.455C124.532 92.455 135.067 77.76 149.032 71.9547C162.857 66.2072 186.7 67.1787 200.032 71.9546Z" fill="#442527"/>
<path d="M226.532 126.455L228.437 127.064L228.475 126.947L228.497 126.826L226.532 126.455ZM129.032 100.455L130.937 101.064L131.772 98.455H129.032V100.455ZM146.532 100.455L148.527 100.31L148.21 95.949L145.118 99.041L146.532 100.455ZM167.532 103.955L169.286 102.994L167.638 99.984L165.832 102.902L167.532 103.955ZM191.532 103.955L193.479 103.497L191.927 96.902L189.649 103.282L191.532 103.955ZM207.532 117.955L209.465 117.439L207.986 111.895L205.698 117.157L207.532 117.955ZM222.532 138.955L221.638 140.743C222.16 141.005 222.77 141.024 223.309 140.798C223.847 140.571 224.259 140.12 224.437 139.564L222.532 138.955ZM228.497 126.826C230.211 117.742 230.307 106.138 226.463 95.5C222.593 84.788 214.731 75.0953 200.707 70.0717L199.358 73.8374C212.134 78.414 219.188 87.138 222.701 96.859C226.241 106.655 226.186 117.501 224.567 126.084L228.497 126.826ZM122.048 96.207C121.86 97.707 122.237 99.001 123.034 100.009C123.784 100.956 124.787 101.502 125.633 101.824C126.491 102.151 127.334 102.303 127.936 102.377C128.244 102.415 128.504 102.434 128.692 102.444C128.787 102.449 128.864 102.452 128.922 102.453C128.951 102.454 128.974 102.454 128.993 102.454C129.002 102.455 129.01 102.455 129.017 102.455C129.02 102.455 129.023 102.455 129.025 102.455C129.027 102.455 129.028 102.455 129.029 102.455C129.03 102.455 129.03 102.455 129.031 102.455C129.031 102.455 129.032 102.455 129.032 100.455C129.032 98.455 129.033 98.455 129.033 98.455C129.034 98.455 129.034 98.455 129.035 98.455C129.036 98.455 129.036 98.455 129.037 98.455C129.038 98.455 129.039 98.455 129.04 98.455C129.041 98.455 129.041 98.455 129.04 98.455C129.038 98.455 129.031 98.455 129.019 98.454C128.996 98.454 128.956 98.453 128.901 98.45C128.791 98.444 128.625 98.432 128.425 98.407C128.011 98.356 127.511 98.259 127.057 98.086C126.59 97.908 126.311 97.703 126.171 97.526C126.078 97.408 125.954 97.202 126.017 96.703L122.048 96.207ZM129.032 100.455C127.127 99.845 127.127 99.845 127.127 99.846C127.127 99.846 127.126 99.848 127.126 99.849C127.125 99.851 127.125 99.854 127.123 99.857C127.121 99.864 127.118 99.874 127.114 99.887C127.106 99.913 127.094 99.951 127.079 99.999C127.049 100.096 127.005 100.236 126.951 100.415C126.842 100.771 126.69 101.282 126.514 101.901C126.164 103.136 125.715 104.819 125.328 106.591C124.945 108.349 124.608 110.26 124.505 111.933C124.453 112.768 124.456 113.608 124.563 114.372C124.666 115.095 124.892 115.982 125.47 116.704L128.594 114.205C128.672 114.303 128.586 114.252 128.524 113.813C128.468 113.415 128.455 112.868 128.497 112.179C128.582 110.805 128.87 109.123 129.236 107.444C129.6 105.778 130.026 104.18 130.362 102.993C130.53 102.401 130.675 101.915 130.778 101.579C130.829 101.411 130.869 101.28 130.897 101.192C130.91 101.149 130.921 101.116 130.928 101.094C130.931 101.083 130.933 101.075 130.935 101.07C130.936 101.068 130.936 101.065 130.937 101.064C130.937 101.064 130.937 101.064 129.032 100.455ZM125.47 116.704C126.052 117.431 126.854 117.672 127.504 117.697C128.104 117.72 128.669 117.572 129.117 117.411C130.025 117.087 131.038 116.497 132.037 115.827C134.071 114.462 136.525 112.439 138.852 110.395C141.194 108.338 143.467 106.207 145.15 104.594C145.993 103.787 146.69 103.107 147.177 102.629C147.421 102.39 147.612 102.201 147.743 102.071C147.809 102.006 147.859 101.956 147.893 101.922C147.91 101.905 147.923 101.892 147.932 101.883C147.937 101.879 147.94 101.875 147.942 101.873C147.944 101.872 147.945 101.871 147.945 101.87C147.946 101.87 147.946 101.869 147.946 101.869C147.946 101.869 147.946 101.869 146.532 100.455C145.118 99.041 145.118 99.04 145.118 99.041C145.118 99.041 145.116 99.042 145.115 99.043C145.114 99.045 145.111 99.048 145.107 99.052C145.099 99.06 145.087 99.072 145.071 99.088C145.038 99.12 144.99 99.168 144.927 99.23C144.8 99.356 144.614 99.54 144.375 99.775C143.898 100.243 143.212 100.912 142.383 101.706C140.723 103.296 138.495 105.384 136.212 107.39C133.914 109.408 131.619 111.291 129.809 112.505C128.886 113.124 128.203 113.49 127.772 113.644C127.55 113.724 127.534 113.695 127.658 113.7C127.831 113.706 128.263 113.791 128.594 114.205L125.47 116.704ZM146.532 100.455C144.537 100.6 144.537 100.6 144.537 100.6C144.537 100.601 144.537 100.601 144.538 100.601C144.538 100.602 144.538 100.604 144.538 100.606C144.538 100.609 144.538 100.615 144.539 100.622C144.54 100.635 144.542 100.656 144.544 100.682C144.547 100.735 144.553 100.814 144.561 100.916C144.577 101.119 144.6 101.417 144.63 101.795C144.691 102.55 144.782 103.625 144.9 104.911C145.136 107.48 145.482 110.898 145.924 114.277C146.363 117.635 146.907 121.032 147.548 123.524C147.861 124.739 148.237 125.901 148.712 126.748C148.94 127.153 149.304 127.697 149.876 128.077C150.583 128.545 151.528 128.693 152.427 128.244L150.638 124.666C151.162 124.404 151.739 124.512 152.087 124.743C152.3 124.884 152.314 124.992 152.2 124.789C151.992 124.418 151.719 123.679 151.422 122.526C150.845 120.283 150.326 117.087 149.89 113.758C149.457 110.449 149.116 107.086 148.883 104.545C148.767 103.276 148.677 102.215 148.617 101.472C148.587 101.101 148.565 100.809 148.55 100.611C148.542 100.511 148.536 100.436 148.532 100.385C148.531 100.36 148.529 100.34 148.528 100.328C148.528 100.321 148.527 100.317 148.527 100.314C148.527 100.312 148.527 100.311 148.527 100.31C148.527 100.31 148.527 100.31 146.532 100.455ZM152.427 128.244C153.188 127.863 153.949 127.086 154.571 126.391C155.268 125.613 156.06 124.619 156.896 123.509C158.57 121.284 160.501 118.481 162.321 115.752C164.145 113.017 165.872 110.332 167.142 108.332C167.778 107.332 168.3 106.502 168.663 105.921C168.845 105.631 168.987 105.403 169.083 105.248C169.132 105.17 169.169 105.11 169.194 105.07C169.207 105.049 169.216 105.034 169.223 105.024C169.226 105.018 169.228 105.014 169.23 105.012C169.231 105.01 169.231 105.009 169.232 105.009C169.232 105.008 169.232 105.008 169.232 105.008C169.233 105.008 169.233 105.007 167.532 103.955C165.832 102.902 165.832 102.902 165.832 102.902C165.831 102.902 165.831 102.902 165.831 102.903C165.831 102.903 165.83 102.904 165.83 102.905C165.828 102.908 165.826 102.911 165.823 102.916C165.817 102.926 165.808 102.941 165.795 102.96C165.771 102.999 165.735 103.058 165.687 103.134C165.592 103.287 165.452 103.512 165.272 103.799C164.913 104.373 164.396 105.195 163.766 106.187C162.505 108.172 160.795 110.83 158.993 113.533C157.188 116.241 155.306 118.969 153.7 121.104C152.895 122.173 152.179 123.066 151.591 123.723C150.928 124.464 150.627 124.671 150.638 124.666L152.427 128.244ZM167.532 103.955C165.778 104.915 165.778 104.916 165.778 104.916C165.778 104.916 165.778 104.916 165.779 104.917C165.779 104.917 165.78 104.918 165.78 104.92C165.782 104.923 165.784 104.927 165.787 104.932C165.793 104.942 165.801 104.958 165.812 104.978C165.835 105.019 165.868 105.079 165.911 105.157C165.997 105.312 166.122 105.54 166.283 105.829C166.605 106.408 167.067 107.233 167.629 108.223C168.751 110.202 170.278 112.845 171.885 115.493C173.487 118.131 175.193 120.812 176.672 122.849C177.406 123.86 178.124 124.767 178.773 125.441C179.095 125.774 179.449 126.103 179.822 126.362C180.136 126.579 180.748 126.955 181.532 126.955V122.955C182.003 122.955 182.233 123.166 182.103 123.076C182.033 123.027 181.884 122.905 181.652 122.664C181.194 122.189 180.604 121.456 179.908 120.498C178.528 118.597 176.89 116.028 175.304 113.417C173.724 110.814 172.219 108.208 171.108 106.249C170.552 105.27 170.096 104.455 169.779 103.885C169.621 103.6 169.497 103.377 169.413 103.225C169.371 103.149 169.339 103.091 169.318 103.052C169.307 103.032 169.299 103.018 169.294 103.008C169.291 103.003 169.289 103 169.288 102.997C169.287 102.996 169.287 102.995 169.287 102.995C169.287 102.994 169.286 102.994 169.286 102.994C169.286 102.994 169.286 102.994 167.532 103.955ZM181.532 126.955C182.362 126.955 182.98 126.542 183.306 126.281C183.672 125.988 183.991 125.625 184.261 125.276C184.807 124.571 185.367 123.636 185.912 122.618C187.014 120.562 188.215 117.865 189.316 115.224C190.421 112.57 191.446 109.922 192.193 107.941C192.566 106.95 192.871 106.123 193.083 105.544C193.189 105.254 193.272 105.026 193.328 104.87C193.357 104.792 193.378 104.732 193.393 104.691C193.4 104.67 193.406 104.655 193.41 104.644C193.412 104.639 193.413 104.635 193.414 104.632C193.414 104.631 193.415 104.63 193.415 104.629C193.416 104.629 193.416 104.627 191.532 103.955C189.649 103.282 189.649 103.282 189.649 103.282C189.649 103.282 189.649 103.282 189.648 103.283C189.648 103.283 189.648 103.284 189.648 103.285C189.647 103.287 189.645 103.291 189.644 103.296C189.64 103.305 189.635 103.32 189.628 103.339C189.614 103.378 189.594 103.436 189.566 103.511C189.511 103.663 189.431 103.886 189.327 104.17C189.119 104.739 188.818 105.553 188.45 106.53C187.712 108.487 186.705 111.089 185.623 113.685C184.537 116.294 183.394 118.847 182.386 120.729C181.877 121.679 181.441 122.385 181.098 122.828C181.016 122.934 180.948 123.014 180.894 123.072C180.868 123.1 180.846 123.121 180.831 123.136C180.823 123.143 180.817 123.148 180.813 123.152C180.809 123.156 180.807 123.157 180.807 123.157C180.807 123.157 180.81 123.155 180.815 123.151C180.82 123.148 180.828 123.142 180.84 123.135C180.862 123.121 180.9 123.098 180.954 123.073C181.058 123.026 181.259 122.955 181.532 122.955V126.955ZM191.532 103.955C189.585 104.413 189.585 104.413 189.585 104.413L189.586 104.414C189.586 104.415 189.586 104.416 189.587 104.418C189.587 104.421 189.588 104.426 189.59 104.433C189.593 104.445 189.597 104.464 189.603 104.489C189.615 104.538 189.632 104.611 189.655 104.705C189.7 104.894 189.766 105.17 189.851 105.521C190.021 106.223 190.267 107.225 190.569 108.427C191.174 110.829 192.007 114.038 192.921 117.252C193.831 120.454 194.835 123.71 195.781 126.185C196.25 127.411 196.734 128.524 197.218 129.361C197.456 129.771 197.744 130.205 198.09 130.561C198.378 130.858 199.042 131.455 200.032 131.455V127.455C200.387 127.455 200.646 127.569 200.778 127.644C200.846 127.682 200.892 127.718 200.919 127.739C200.946 127.761 200.959 127.775 200.96 127.775C200.961 127.776 200.953 127.769 200.938 127.75C200.923 127.731 200.902 127.704 200.876 127.667C200.823 127.593 200.758 127.491 200.68 127.358C200.357 126.799 199.963 125.921 199.517 124.756C198.636 122.45 197.671 119.331 196.768 116.158C195.87 112.997 195.047 109.83 194.448 107.451C194.149 106.262 193.906 105.272 193.739 104.579C193.655 104.233 193.59 103.962 193.546 103.777C193.524 103.685 193.507 103.614 193.496 103.567C193.49 103.543 193.486 103.525 193.483 103.514C193.482 103.508 193.481 103.503 193.48 103.501C193.48 103.499 193.479 103.498 193.479 103.497C193.479 103.497 193.479 103.497 191.532 103.955ZM200.032 131.455C201.063 131.455 201.874 130.897 202.355 130.495C202.894 130.044 203.398 129.464 203.85 128.869C204.763 127.669 205.679 126.127 206.477 124.66C207.283 123.177 208.004 121.703 208.521 120.604C208.781 120.053 208.99 119.593 209.136 119.27C209.209 119.108 209.266 118.981 209.305 118.892C209.324 118.848 209.339 118.814 209.349 118.791C209.355 118.779 209.359 118.77 209.361 118.763C209.363 118.76 209.364 118.757 209.365 118.756C209.365 118.755 209.366 118.754 209.366 118.753C209.366 118.752 209.366 118.752 207.532 117.955C205.698 117.157 205.698 117.157 205.698 117.157V117.158C205.697 117.159 205.697 117.161 205.696 117.163C205.694 117.168 205.69 117.175 205.686 117.185C205.677 117.205 205.664 117.235 205.646 117.275C205.611 117.356 205.558 117.475 205.489 117.628C205.351 117.933 205.151 118.372 204.902 118.899C204.404 119.957 203.719 121.357 202.962 122.75C202.198 124.157 201.395 125.49 200.667 126.447C200.3 126.93 200.003 127.248 199.789 127.426C199.518 127.653 199.626 127.455 200.032 127.455V131.455ZM207.532 117.955C205.6 118.47 205.6 118.47 205.6 118.47C205.6 118.471 205.6 118.473 205.601 118.474C205.601 118.476 205.602 118.479 205.603 118.483C205.605 118.491 205.608 118.502 205.612 118.517C205.62 118.547 205.632 118.591 205.647 118.647C205.678 118.76 205.723 118.925 205.781 119.135C205.897 119.555 206.066 120.155 206.275 120.878C206.694 122.324 207.28 124.273 207.947 126.275C208.611 128.267 209.37 130.356 210.137 132.063C210.52 132.914 210.924 133.717 211.343 134.381C211.718 134.977 212.262 135.725 213.003 136.17L215.061 132.74C215.177 132.809 215.049 132.761 214.728 132.249C214.448 131.806 214.13 131.191 213.786 130.424C213.1 128.897 212.39 126.955 211.742 125.01C211.097 123.074 210.527 121.18 210.117 119.766C209.913 119.059 209.749 118.476 209.637 118.069C209.58 117.866 209.537 117.707 209.508 117.6C209.493 117.546 209.482 117.505 209.475 117.478C209.471 117.465 209.469 117.455 209.467 117.448C209.466 117.445 209.465 117.443 209.465 117.441C209.465 117.44 209.465 117.439 209.465 117.439C209.465 117.439 209.465 117.439 207.532 117.955ZM213.003 136.17C214.315 136.957 216.495 138.109 218.301 139.043C219.213 139.516 220.047 139.94 220.652 140.247C220.955 140.4 221.2 140.524 221.371 140.609C221.456 140.652 221.523 140.686 221.568 140.708C221.59 140.72 221.608 140.728 221.619 140.734C221.625 140.737 221.63 140.739 221.633 140.741C221.634 140.742 221.636 140.742 221.636 140.743H221.638C221.638 140.743 221.638 140.743 222.532 138.955C223.427 137.166 223.427 137.166 223.427 137.166H223.426V137.165C223.425 137.165 223.424 137.164 223.423 137.164C223.42 137.162 223.416 137.16 223.41 137.158C223.399 137.152 223.382 137.144 223.361 137.133C223.317 137.111 223.252 137.078 223.168 137.036C223.001 136.952 222.758 136.83 222.459 136.678C221.861 136.375 221.038 135.956 220.138 135.491C218.32 134.55 216.249 133.452 215.061 132.74L213.003 136.17ZM224.437 139.564L228.437 127.064L224.627 125.845L220.627 138.345L224.437 139.564ZM200.707 70.0717C193.775 67.5888 184.249 66.1319 174.743 66.0085C165.251 65.8853 155.529 67.0877 148.264 70.1079L149.8 73.8015C156.36 71.0742 165.472 69.8885 174.691 70.0082C183.895 70.1277 192.957 71.5445 199.358 73.8374L200.707 70.0717ZM148.264 70.1079C140.923 73.1598 134.567 78.503 130.001 83.539C127.71 86.065 125.837 88.551 124.492 90.691C123.82 91.761 123.267 92.765 122.858 93.661C122.463 94.527 122.147 95.41 122.048 96.207L126.017 96.703C126.042 96.5 126.165 96.048 126.497 95.322C126.814 94.626 127.275 93.781 127.879 92.82C129.086 90.899 130.813 88.598 132.964 86.225C137.283 81.462 143.176 76.555 149.8 73.8015L148.264 70.1079Z" fill="#442527"/>
<path d="M2 71.5C0.895431 71.5 0 72.3954 0 73.5C0 74.6046 0.895431 75.5 2 75.5V71.5ZM124.5 2.5C124.5 1.39543 123.605 0.5 122.5 0.5C121.395 0.5 120.5 1.39543 120.5 2.5H124.5ZM106.5 103.5L104.849 104.628C105.453 105.513 106.649 105.764 107.558 105.197C108.468 104.63 108.769 103.447 108.24 102.514L106.5 103.5ZM106.5 103.5C108.24 102.514 108.24 102.514 108.24 102.514C108.24 102.514 108.24 102.514 108.24 102.514C108.24 102.514 108.239 102.513 108.239 102.511C108.237 102.509 108.235 102.504 108.231 102.498C108.224 102.486 108.213 102.466 108.199 102.44C108.169 102.387 108.125 102.308 108.067 102.202C107.952 101.992 107.783 101.679 107.573 101.28C107.152 100.48 106.568 99.3343 105.918 97.9585C104.613 95.1943 103.069 91.5556 102.049 87.9548C101.005 84.2688 100.616 80.9797 101.252 78.7327C101.552 77.676 102.055 76.9295 102.773 76.423C103.507 75.9045 104.662 75.5 106.5 75.5V71.5C104.088 71.5 102.055 72.033 100.466 73.1551C98.8592 74.2892 97.9013 75.8865 97.4039 77.6423C96.4468 81.0203 97.1201 85.2312 98.2007 89.0452C99.3055 92.9444 100.95 96.8057 102.301 99.6665C102.979 101.103 103.59 102.301 104.033 103.142C104.254 103.563 104.434 103.895 104.559 104.124C104.622 104.238 104.671 104.327 104.705 104.388C104.722 104.418 104.735 104.442 104.744 104.458C104.749 104.467 104.753 104.473 104.755 104.478C104.757 104.48 104.758 104.482 104.758 104.483C104.759 104.484 104.759 104.485 104.759 104.485C104.76 104.486 104.76 104.486 106.5 103.5ZM64.5 75.5C74.4126 75.5 84.4125 82.4884 92.1774 89.9428C96.0049 93.6172 99.181 97.2987 101.401 100.065C102.51 101.446 103.378 102.595 103.965 103.395C104.259 103.795 104.483 104.107 104.632 104.318C104.706 104.423 104.762 104.503 104.798 104.555C104.816 104.581 104.83 104.601 104.838 104.613C104.842 104.619 104.845 104.624 104.847 104.626C104.848 104.627 104.849 104.628 104.849 104.629C104.849 104.629 104.849 104.629 104.849 104.629C104.849 104.629 104.849 104.628 106.5 103.5C108.151 102.372 108.151 102.371 108.151 102.37C108.15 102.37 108.15 102.369 108.149 102.369C108.148 102.367 108.147 102.365 108.145 102.363C108.142 102.358 108.138 102.352 108.132 102.343C108.121 102.327 108.104 102.303 108.083 102.273C108.04 102.211 107.978 102.123 107.897 102.008C107.736 101.779 107.498 101.447 107.189 101.027C106.572 100.186 105.669 98.9916 104.521 97.5605C102.225 94.7013 98.9326 90.8828 94.9476 87.0572C87.0875 79.5116 76.0874 71.5 64.5 71.5V75.5ZM2 75.5H64.5V71.5H2V75.5ZM106.5 75.5H112.5V71.5H106.5V75.5ZM124.5 63.5V2.5H120.5V63.5H124.5ZM112.5 75.5C119.127 75.5 124.5 70.1274 124.5 63.5H120.5C120.5 67.9183 116.918 71.5 112.5 71.5V75.5Z" fill="#305478"/>
<path d="M17.18 27.98C17.1133 27.98 17.0533 27.96 17 27.92C16.96 27.8667 16.94 27.8067 16.94 27.74V13.14C16.94 13.0733 16.96 13.02 17 12.98C17.0533 12.9267 17.1133 12.9 17.18 12.9H18.96C19.0267 12.9 19.08 12.9267 19.12 12.98C19.1733 13.02 19.2 13.0733 19.2 13.14V19.14H25.4V13.14C25.4 13.0733 25.42 13.02 25.46 12.98C25.5133 12.9267 25.5733 12.9 25.64 12.9H27.42C27.4867 12.9 27.54 12.9267 27.58 12.98C27.6333 13.02 27.66 13.0733 27.66 13.14V27.74C27.66 27.8067 27.6333 27.8667 27.58 27.92C27.54 27.96 27.4867 27.98 27.42 27.98H25.64C25.48 27.98 25.4 27.9 25.4 27.74V21.24H19.2V27.74C19.2 27.9 19.12 27.98 18.96 27.98H17.18ZM31.2113 29.02C31.1446 29.02 31.0846 28.9933 31.0313 28.94C30.9913 28.9 30.9713 28.8467 30.9713 28.78V18.24C30.9713 18.1733 30.9913 18.12 31.0313 18.08C31.0846 18.0267 31.1446 18 31.2113 18H32.8913C32.9579 18 33.0113 18.0267 33.0513 18.08C33.1046 18.12 33.1313 18.1733 33.1313 18.24V28.78C33.1313 28.8467 33.1046 28.9 33.0513 28.94C33.0113 28.9933 32.9579 29.02 32.8913 29.02H31.2113ZM32.0713 15.82C31.6846 15.82 31.3579 15.6933 31.0913 15.44C30.8379 15.1733 30.7113 14.8533 30.7113 14.48C30.7113 14.0933 30.8379 13.7667 31.0913 13.5C31.3579 13.2333 31.6846 13.1 32.0713 13.1C32.4579 13.1 32.7846 13.2333 33.0513 13.5C33.3179 13.7667 33.4513 14.0933 33.4513 14.48C33.4513 14.8533 33.3179 15.1733 33.0513 15.44C32.7846 15.6933 32.4579 15.82 32.0713 15.82ZM37.715 30.54C37.675 30.6467 37.615 30.7133 37.535 30.74C37.455 30.78 37.3683 30.8 37.275 30.8H35.675C35.6083 30.8 35.555 30.7733 35.515 30.72C35.475 30.68 35.4683 30.62 35.495 30.54L36.475 26.9C36.5017 26.8333 36.5417 26.7667 36.595 26.7C36.6483 26.62 36.7483 26.58 36.895 26.58H38.835C39.0083 26.58 39.1017 26.6267 39.115 26.72C39.1283 26.8 39.1217 26.88 39.095 26.96L37.715 30.54ZM49.7952 27.72C49.7952 27.8933 49.7085 27.98 49.5352 27.98H47.7152C47.5418 27.98 47.4552 27.8933 47.4552 27.72V13.16C47.4552 12.9867 47.5418 12.9 47.7152 12.9H49.5352C49.7085 12.9 49.7952 12.9867 49.7952 13.16V27.72ZM52.7589 12.22C53.1322 12.22 53.4389 12.3733 53.6789 12.68C53.9189 12.9867 54.0522 13.34 54.0789 13.74C54.1189 14.2333 54.0856 14.66 53.9789 15.02C53.8856 15.3667 53.7256 15.7067 53.4989 16.04C53.2989 16.3467 53.0589 16.6133 52.7789 16.84C52.4989 17.0667 52.1856 17.2133 51.8389 17.28C51.6656 17.36 51.5789 17.3267 51.5789 17.18V16.4C51.5789 16.2933 51.5856 16.2267 51.5989 16.2C51.6256 16.16 51.6656 16.1267 51.7189 16.1C51.9456 15.9933 52.1389 15.84 52.2989 15.64C52.4722 15.4267 52.5656 15.1867 52.5789 14.92C52.2989 14.8533 52.0389 14.72 51.7989 14.52C51.5589 14.3067 51.4389 14.02 51.4389 13.66C51.4389 13.2333 51.5589 12.8867 51.7989 12.62C52.0522 12.3533 52.3722 12.22 52.7589 12.22ZM69.2503 27.96C69.1836 27.96 69.1236 27.9333 69.0703 27.88C69.017 27.8133 68.9903 27.7467 68.9903 27.68V20.76C68.9903 20.1333 68.8436 19.6267 68.5503 19.24C68.257 18.84 67.8303 18.64 67.2703 18.64C66.8703 18.64 66.5103 18.7267 66.1903 18.9C65.8836 19.06 65.6236 19.2867 65.4103 19.58C65.197 19.86 65.0303 20.2 64.9103 20.6C64.8036 21 64.7503 21.4333 64.7503 21.9V27.7C64.7503 27.8733 64.6703 27.96 64.5103 27.96H62.8503C62.7836 27.96 62.7236 27.9333 62.6703 27.88C62.617 27.8133 62.5903 27.7467 62.5903 27.68V20.76C62.5903 19.3467 62.0036 18.64 60.8303 18.64C60.0836 18.64 59.497 18.8667 59.0703 19.32C58.657 19.7733 58.4503 20.4 58.4503 21.2V27.7C58.4503 27.8733 58.3703 27.96 58.2103 27.96H56.5503C56.4836 27.96 56.4236 27.9333 56.3703 27.88C56.3303 27.8133 56.3103 27.7467 56.3103 27.68V19.72C56.3103 19.2133 56.3036 18.7267 56.2903 18.26C56.277 17.7933 56.257 17.4267 56.2303 17.16C56.2036 16.9867 56.297 16.9 56.5103 16.9H58.2103C58.3303 16.9 58.3903 16.9533 58.3903 17.06L58.3703 17.76C58.637 17.4533 59.0036 17.1933 59.4703 16.98C59.937 16.7667 60.4303 16.66 60.9503 16.66C61.6436 16.66 62.277 16.82 62.8503 17.14C63.4236 17.46 63.837 17.9333 64.0903 18.56C64.397 17.92 64.8503 17.4467 65.4503 17.14C66.0503 16.82 66.6903 16.66 67.3703 16.66C68.5036 16.66 69.417 17 70.1103 17.68C70.8036 18.3467 71.1503 19.2867 71.1503 20.5V27.7C71.1503 27.7667 71.1236 27.8267 71.0703 27.88C71.0303 27.9333 70.977 27.96 70.9103 27.96H69.2503ZM23.7 54.9C23.3533 55.2733 22.9067 55.5933 22.36 55.86C21.8267 56.1133 21.26 56.2667 20.66 56.32C20.34 56.3467 19.98 56.3467 19.58 56.32C19.1933 56.2933 18.8133 56.2467 18.44 56.18C18.08 56.1267 17.7467 56.0667 17.44 56C17.1467 55.92 16.9333 55.8467 16.8 55.78C16.6 55.6867 16.48 55.62 16.44 55.58C16.4 55.5267 16.3933 55.4267 16.42 55.28L16.56 53.8C16.5733 53.6933 16.6067 53.6267 16.66 53.6C16.7133 53.5733 16.8133 53.5933 16.96 53.66C17.12 53.7267 17.3467 53.8067 17.64 53.9C17.9333 53.98 18.26 54.0533 18.62 54.12C18.98 54.1733 19.34 54.2067 19.7 54.22C20.0733 54.2333 20.4067 54.2067 20.7 54.14C21.0867 54.0467 21.4 53.9267 21.64 53.78C21.88 53.62 22.0667 53.44 22.2 53.24C22.3467 53.0267 22.4467 52.8 22.5 52.56C22.5533 52.3067 22.58 52.0467 22.58 51.78C22.58 51.5267 22.4133 51.18 22.08 50.74C21.76 50.3 21.2933 49.9 20.68 49.54C19.9333 49.1 19.2867 48.6933 18.74 48.32C18.1933 47.9333 17.74 47.5533 17.38 47.18C17.0333 46.8067 16.7733 46.42 16.6 46.02C16.4267 45.62 16.34 45.18 16.34 44.7C16.34 44.1533 16.4533 43.6333 16.68 43.14C16.92 42.6333 17.24 42.1933 17.64 41.82C18.0533 41.4467 18.54 41.1533 19.1 40.94C19.6733 40.7133 20.3 40.6 20.98 40.6C21.6733 40.6 22.24 40.6467 22.68 40.74C23.1333 40.82 23.52 40.92 23.84 41.04C23.9867 41.0933 24.0733 41.1533 24.1 41.22C24.14 41.2733 24.1467 41.3467 24.12 41.44L23.86 42.72C23.8333 42.8667 23.7867 42.9667 23.72 43.02C23.6667 43.0733 23.5667 43.0733 23.42 43.02C23.22 42.9533 23 42.8933 22.76 42.84C22.52 42.7733 22.2733 42.72 22.02 42.68C21.7667 42.64 21.52 42.6133 21.28 42.6C21.0533 42.5867 20.8467 42.5933 20.66 42.62C19.9133 42.74 19.3867 42.9867 19.08 43.36C18.7867 43.72 18.64 44.18 18.64 44.74C18.64 45.0733 18.8133 45.4467 19.16 45.86C19.5067 46.26 20.0133 46.66 20.68 47.06C21.52 47.5667 22.2067 48.02 22.74 48.42C23.2867 48.82 23.7133 49.2067 24.02 49.58C24.34 49.94 24.56 50.3067 24.68 50.68C24.8133 51.0533 24.88 51.46 24.88 51.9C24.88 53.0733 24.4867 54.0733 23.7 54.9ZM33.5984 55.96C33.5051 55.96 33.4451 55.9533 33.4184 55.94C33.3918 55.9133 33.3784 55.86 33.3784 55.78V54.88C33.0451 55.3467 32.6184 55.7 32.0984 55.94C31.5918 56.1667 31.0784 56.28 30.5584 56.28C30.0118 56.28 29.5051 56.2067 29.0384 56.06C28.5851 55.9133 28.1918 55.6933 27.8584 55.4C27.5384 55.1067 27.2851 54.7467 27.0984 54.32C26.9118 53.88 26.8184 53.3733 26.8184 52.8C26.8184 52.12 26.9384 51.5267 27.1784 51.02C27.4184 50.5 27.7918 50.0733 28.2984 49.74C28.8184 49.3933 29.4784 49.14 30.2784 48.98C31.0784 48.8067 32.0451 48.72 33.1784 48.72C33.1784 48.4667 33.1518 48.2133 33.0984 47.96C33.0451 47.7067 32.9518 47.48 32.8184 47.28C32.6984 47.08 32.5251 46.92 32.2984 46.8C32.0718 46.6667 31.7851 46.6 31.4384 46.6C30.8384 46.6 30.2918 46.68 29.7984 46.84C29.3184 47 28.8651 47.2133 28.4384 47.48C28.2251 47.6133 28.0784 47.6733 27.9984 47.66C27.9318 47.6467 27.8984 47.5733 27.8984 47.44V45.92C27.8984 45.8667 27.8918 45.8133 27.8784 45.76C27.8784 45.6933 27.8918 45.64 27.9184 45.6C27.9584 45.5467 28.0584 45.4733 28.2184 45.38C28.6718 45.1533 29.1318 44.9667 29.5984 44.82C30.0784 44.6733 30.6784 44.6 31.3984 44.6C32.7451 44.6 33.7384 44.9267 34.3784 45.58C35.0318 46.2333 35.3584 47.26 35.3584 48.66V53.4C35.3584 53.7733 35.3584 54.1667 35.3584 54.58C35.3718 54.98 35.3984 55.3333 35.4384 55.64C35.4651 55.8533 35.3918 55.96 35.2184 55.96H33.5984ZM33.2384 50.62C31.7584 50.62 30.6984 50.8 30.0584 51.16C29.4184 51.52 29.0984 52.06 29.0984 52.78C29.0984 53.2867 29.2451 53.6667 29.5384 53.92C29.8318 54.1733 30.2251 54.3 30.7184 54.3C31.4784 54.3 32.0851 54.02 32.5384 53.46C33.0051 52.9 33.2384 52.0267 33.2384 50.84V50.62ZM51.4769 55.96C51.4102 55.96 51.3502 55.9333 51.2969 55.88C51.2435 55.8133 51.2169 55.7467 51.2169 55.68V48.76C51.2169 48.1333 51.0702 47.6267 50.7769 47.24C50.4835 46.84 50.0569 46.64 49.4969 46.64C49.0969 46.64 48.7369 46.7267 48.4169 46.9C48.1102 47.06 47.8502 47.2867 47.6369 47.58C47.4235 47.86 47.2569 48.2 47.1369 48.6C47.0302 49 46.9769 49.4333 46.9769 49.9V55.7C46.9769 55.8733 46.8969 55.96 46.7369 55.96H45.0769C45.0102 55.96 44.9502 55.9333 44.8969 55.88C44.8435 55.8133 44.8169 55.7467 44.8169 55.68V48.76C44.8169 47.3467 44.2302 46.64 43.0569 46.64C42.3102 46.64 41.7235 46.8667 41.2969 47.32C40.8835 47.7733 40.6769 48.4 40.6769 49.2V55.7C40.6769 55.8733 40.5969 55.96 40.4369 55.96H38.7769C38.7102 55.96 38.6502 55.9333 38.5969 55.88C38.5569 55.8133 38.5369 55.7467 38.5369 55.68V47.72C38.5369 47.2133 38.5302 46.7267 38.5169 46.26C38.5035 45.7933 38.4835 45.4267 38.4569 45.16C38.4302 44.9867 38.5235 44.9 38.7369 44.9H40.4369C40.5569 44.9 40.6169 44.9533 40.6169 45.06L40.5969 45.76C40.8635 45.4533 41.2302 45.1933 41.6969 44.98C42.1635 44.7667 42.6569 44.66 43.1769 44.66C43.8702 44.66 44.5035 44.82 45.0769 45.14C45.6502 45.46 46.0635 45.9333 46.3169 46.56C46.6235 45.92 47.0769 45.4467 47.6769 45.14C48.2769 44.82 48.9169 44.66 49.5969 44.66C50.7302 44.66 51.6435 45 52.3369 45.68C53.0302 46.3467 53.3769 47.2867 53.3769 48.5V55.7C53.3769 55.7667 53.3502 55.8267 53.2969 55.88C53.2569 55.9333 53.2035 55.96 53.1369 55.96H51.4769ZM62.5664 55.98C62.4997 55.98 62.4397 55.96 62.3864 55.92C62.3464 55.8667 62.3264 55.8067 62.3264 55.74V41.14C62.3264 41.0733 62.3464 41.02 62.3864 40.98C62.4397 40.9267 62.4997 40.9 62.5664 40.9H64.3664C64.4331 40.9 64.4864 40.9267 64.5264 40.98C64.5797 41.02 64.6064 41.0733 64.6064 41.14V53.88H69.7864C69.9464 53.88 70.0264 53.9667 70.0264 54.14V55.74C70.0264 55.8067 69.9997 55.8667 69.9464 55.92C69.9064 55.96 69.8531 55.98 69.7864 55.98H62.5664ZM80.3739 54.44C79.8939 55.04 79.3206 55.5 78.6539 55.82C77.9872 56.1267 77.2339 56.28 76.3939 56.28C75.5406 56.28 74.7872 56.1267 74.1339 55.82C73.4806 55.5133 72.9339 55.0933 72.4939 54.56C72.0539 54.0267 71.7206 53.4067 71.4939 52.7C71.2806 51.9933 71.1739 51.24 71.1739 50.44C71.1739 49.64 71.2806 48.8867 71.4939 48.18C71.7206 47.4733 72.0539 46.86 72.4939 46.34C72.9339 45.8067 73.4739 45.3867 74.1139 45.08C74.7672 44.7733 75.5272 44.62 76.3939 44.62C77.2472 44.62 78.0006 44.7733 78.6539 45.08C79.3072 45.3867 79.8539 45.8067 80.2939 46.34C80.7339 46.86 81.0606 47.4733 81.2739 48.18C81.5006 48.8867 81.6139 49.64 81.6139 50.44C81.6139 51.2267 81.5072 51.9667 81.2939 52.66C81.0806 53.34 80.7739 53.9333 80.3739 54.44ZM76.3939 46.58C75.8739 46.58 75.4206 46.6933 75.0339 46.92C74.6606 47.1467 74.3539 47.4467 74.1139 47.82C73.8739 48.18 73.6939 48.5933 73.5739 49.06C73.4539 49.5133 73.3939 49.9733 73.3939 50.44C73.3939 50.9067 73.4539 51.3733 73.5739 51.84C73.6939 52.2933 73.8739 52.7067 74.1139 53.08C74.3539 53.4533 74.6606 53.7533 75.0339 53.98C75.4206 54.2067 75.8739 54.32 76.3939 54.32C76.9139 54.32 77.3606 54.2067 77.7339 53.98C78.1206 53.7533 78.4339 53.4533 78.6739 53.08C78.9139 52.7067 79.0939 52.2933 79.2139 51.84C79.3339 51.3733 79.3939 50.9067 79.3939 50.44C79.3939 49.9867 79.3339 49.5333 79.2139 49.08C79.0939 48.6133 78.9139 48.2 78.6739 47.84C78.4339 47.4667 78.1206 47.1667 77.7339 46.94C77.3606 46.7 76.9139 46.58 76.3939 46.58ZM95.7228 55.76C95.6961 55.84 95.6628 55.8933 95.6228 55.92C95.5961 55.9333 95.5495 55.94 95.4828 55.94H93.6228C93.5561 55.94 93.5028 55.9333 93.4628 55.92C93.4361 55.8933 93.4028 55.84 93.3628 55.76L90.8828 48.24L88.3828 55.76C88.3428 55.84 88.3028 55.8933 88.2628 55.92C88.2228 55.9333 88.1695 55.94 88.1028 55.94H86.2628C86.2095 55.94 86.1628 55.9333 86.1228 55.92C86.0828 55.8933 86.0495 55.84 86.0228 55.76L82.4628 45.14C82.4361 45.0733 82.4295 45.02 82.4428 44.98C82.4695 44.94 82.5561 44.92 82.7028 44.92H84.4428C84.5228 44.92 84.5761 44.9333 84.6028 44.96C84.6428 44.9733 84.6761 45.0133 84.7028 45.08L87.1828 52.9L89.7028 45.08C89.7295 44.9733 89.8095 44.92 89.9428 44.92H91.8028C91.9361 44.92 92.0161 44.9733 92.0428 45.08L94.5628 52.9L97.0428 45.08C97.0695 44.9733 97.1495 44.92 97.2828 44.92H99.0628C99.1961 44.92 99.2761 44.94 99.3028 44.98C99.3295 45.02 99.3295 45.0733 99.3028 45.14L95.7228 55.76Z" fill="black"/>
<defs>
<filter id="filter0_d_1017_35" x="112.704" y="201.291" width="81.335" height="68.3849" filterUnits="userSpaceOnUse" color-interpolation-filters="sRGB">
<feFlood flood-opacity="0" result="BackgroundImageFix"/>
<feColorMatrix in="SourceAlpha" type="matrix" values="0 0 0 0 0 0 0 0 0 0 0 0 0 0 0 0 0 0 127 0" result="hardAlpha"/>
<feOffset dy="4"/>
<feGaussianBlur stdDeviation="2"/>
<feComposite in2="hardAlpha" operator="out"/>
<feColorMatrix type="matrix" values="0 0 0 0 0 0 0 0 0 0 0 0 0 0 0 0 0 0 0.25 0"/>
<feBlend mode="normal" in2="BackgroundImageFix" result="effect1_dropShadow_1017_35"/>
<feBlend mode="normal" in="SourceGraphic" in2="effect1_dropShadow_1017_35" result="shape"/>
</filter>
</defs>
</svg>
